<?xml version="1.0" encoding="UTF-8"?>
<svg xmlns="http://www.w3.org/2000/svg" viewBox="0 0 512 512">
<defs>
<linearGradient id="bg" x1="0%" y1="0%" x2="100%" y2="100%">
<stop offset="0%" stop-color="#0B0D18"/>
<stop offset="100%" stop-color="#05070F"/>
</linearGradient>

<linearGradient id="vgrad" x1="0%" y1="0%" x2="100%" y2="100%">
<stop offset="0%" stop-color="#A98CAD"/>
<stop offset="45%" stop-color="#927897"/>
<stop offset="100%" stop-color="#715C77"/>
</linearGradient>

<linearGradient id="ring" x1="0%" y1="50%" x2="100%" y2="50%">
<stop offset="0%" stop-color="#715C77"/>
<stop offset="50%" stop-color="#927897"/>
<stop offset="100%" stop-color="#A98CAD"/>
</linearGradient>
</defs>

<rect x="18" y="18" width="476" height="476" rx="82" fill="url(#bg)"/>
<rect x="18" y="18" width="476" height="476" rx="82"
      fill="none" stroke="#927897" stroke-opacity=".25"/>

<ellipse cx="255" cy="255"
         rx="170" ry="72"
         transform="rotate(-18 255 255)"
         fill="none"
         stroke="url(#ring)"
         stroke-width="14"
         stroke-linecap="round"
         opacity=".92"/>

<path fill="url(#vgrad)"
d="M138 112
L226 356
L256 420
L286 356
L374 112
L315 112
L256 304
L197 112Z"/>

<path d="M88 305
C170 355 346 352 425 225"
fill="none"
stroke="url(#ring)"
stroke-width="14"
stroke-linecap="round"/>

<path d="M197 118 L252 292 L262 270 L217 118 Z"
fill="#D7C7D8"
opacity=".08"/>
</svg>
